<?xml version="1.0" encoding="UTF-8" standalone="no"?>
<svg
   version="1.0"
   width="200pt"
   height="150pt"
   viewBox="0 0 200.00011 150.00009"
   preserveAspectRatio="xMidYMid"
   xmlns="http://www.w3.org/2000/svg"
   xmlns:svg="http://www.w3.org/2000/svg">
  <g
     transform="matrix(0.1,0,0,-0.1,-9.0996898,154.12004)"
     fill="currentColor"
     stroke="none">
    <path
       d="m 1545,1466 c -16,-16 -25,-40 -30,-79 l -7,-56 50,-56 c 47,-53 121,-180 111,-190 -3,-2 -22,-2 -42,2 -31,5 -41,13 -63,52 -32,55 -105,134 -154,165 -47,30 -144,66 -179,66 -35,0 -71,-37 -71,-74 0,-65 92,-195 185,-262 63,-44 66,-48 59,-78 -3,-17 -8,-33 -10,-35 -1,-2 -74,38 -161,87 -209,120 -274,149 -369,168 -140,27 -243,2 -322,-78 l -40,-40 -44,26 c -55,32 -122,35 -177,6 -116,-59 -115,-242 1,-301 40,-21 111,-23 163,-5 17,6 23,1 34,-30 8,-21 34,-60 60,-87 98,-104 454,-423 502,-450 51,-27 52,-27 255,-27 237,0 265,6 284,64 9,28 9,44 0,72 -19,55 -51,64 -235,64 h -155 v 89 c 0,110 -20,177 -72,236 -49,55 -85,78 -173,105 -103,33 -129,65 -85,105 18,17 23,17 86,1 89,-23 127,-39 184,-81 89,-65 146,-173 158,-297 l 7,-68 94,55 93,55 h 167 c 91,0 184,5 206,11 83,23 146,124 130,208 -11,58 -41,96 -131,167 l -84,67 v 78 c 0,48 -7,101 -20,141 -32,105 -122,228 -167,228 -8,0 -25,-11 -38,-24 z m 229,-592 c 31,-30 9,-84 -34,-84 -24,0 -50,26 -50,50 0,24 26,50 50,50 10,0 26,-7 34,-16 z"
       />
    <path
       d="m 684,306 c -65,-44 -84,-67 -91,-108 -4,-29 0,-41 23,-67 50,-55 84,-52 186,14 l 87,56 -66,62 c -36,34 -71,65 -78,69 -6,4 -34,-8 -61,-26 z"
       />
  </g>
</svg>
