<?xml version="1.0" encoding="UTF-8" standalone="no"?>
<svg
   version="1.0"
   width="200pt"
   height="150pt"
   viewBox="0 0 200 150"
   preserveAspectRatio="xMidYMid"
   xmlns="http://www.w3.org/2000/svg"
   xmlns:svg="http://www.w3.org/2000/svg">
  <g
     transform="matrix(0.1,0,0,-0.1,-6.090237,164.8942)"
     fill="currentColor"
     stroke="none">
    <path
       d="M 693,1585 C 591,1563 504,1514 425,1435 303,1314 256,1180 262,978 c 3,-106 3,-108 36,-140 l 32,-33 h 480 480 l 32,33 c 33,32 33,34 36,140 6,202 -41,336 -163,457 -136,136 -317,190 -502,150 z"
       />
    <path
       d="m 1595,1336 c -51,-19 -110,-82 -124,-132 -6,-22 -11,-100 -11,-174 0,-74 -5,-153 -11,-175 -15,-53 -91,-129 -144,-144 -27,-7 -207,-11 -548,-11 -568,0 -565,0 -587,-64 -9,-28 -9,-44 0,-72 15,-44 56,-64 135,-64 h 55 V 398 c 0,-167 31,-198 200,-198 169,0 200,31 200,198 v 102 h 50 50 V 398 c 0,-167 31,-198 200,-198 168,0 200,31 200,197 v 102 l 58,11 c 124,26 247,122 298,235 l 25,55 h 67 c 95,0 140,15 188,64 52,51 68,106 61,198 -7,85 -33,144 -87,198 -74,74 -191,106 -275,76 z m 149,-252 c 31,-30 9,-84 -34,-84 -24,0 -50,26 -50,50 0,24 26,50 50,50 10,0 26,-7 34,-16 z"
       />
  </g>
</svg>
